<mxfile host="Electron" agent="Mozilla/5.0 (Macintosh; Intel Mac OS X 10_15_7) AppleWebKit/537.36 (KHTML, like Gecko) draw.io/24.7.17 Chrome/128.0.6613.36 Electron/32.0.1 Safari/537.36" version="24.7.17">
  <diagram name="Page-1" id="v6EEbJpwW9lv7CwhdH_a">
    <mxGraphModel dx="2099" dy="899" grid="1" gridSize="10" guides="1" tooltips="1" connect="1" arrows="1" fold="1" page="1" pageScale="1" pageWidth="827" pageHeight="1169" math="0" shadow="0">
      <root>
        <mxCell id="0" />
        <mxCell id="1" parent="0" />
        <mxCell id="vWzwQ7BeG_ch1uv16o5f-4" style="edgeStyle=orthogonalEdgeStyle;rounded=0;orthogonalLoop=1;jettySize=auto;html=1;entryX=0;entryY=0.5;entryDx=0;entryDy=0;" edge="1" parent="1" source="vWzwQ7BeG_ch1uv16o5f-2" target="vWzwQ7BeG_ch1uv16o5f-7">
          <mxGeometry relative="1" as="geometry">
            <mxPoint x="284" y="260" as="targetPoint" />
          </mxGeometry>
        </mxCell>
        <mxCell id="vWzwQ7BeG_ch1uv16o5f-2" value="" style="strokeWidth=2;html=1;shape=mxgraph.flowchart.database;whiteSpace=wrap;" vertex="1" parent="1">
          <mxGeometry x="-70" y="310" width="100" height="140" as="geometry" />
        </mxCell>
        <mxCell id="vWzwQ7BeG_ch1uv16o5f-22" style="edgeStyle=orthogonalEdgeStyle;rounded=0;orthogonalLoop=1;jettySize=auto;html=1;entryX=0.75;entryY=1;entryDx=0;entryDy=0;" edge="1" parent="1" source="vWzwQ7BeG_ch1uv16o5f-5" target="vWzwQ7BeG_ch1uv16o5f-7">
          <mxGeometry relative="1" as="geometry" />
        </mxCell>
        <mxCell id="vWzwQ7BeG_ch1uv16o5f-5" value="" style="strokeColor=#dddddd;shadow=1;strokeWidth=1;rounded=1;absoluteArcSize=1;arcSize=2;" vertex="1" parent="1">
          <mxGeometry x="320" y="580" width="100" height="60" as="geometry" />
        </mxCell>
        <mxCell id="vWzwQ7BeG_ch1uv16o5f-6" value="Firebase" style="sketch=0;dashed=0;connectable=0;html=1;fillColor=#5184F3;strokeColor=none;shape=mxgraph.gcp2.firebase;part=1;labelPosition=right;verticalLabelPosition=middle;align=left;verticalAlign=middle;spacingLeft=5;fontColor=#999999;fontSize=12;" vertex="1" parent="vWzwQ7BeG_ch1uv16o5f-5">
          <mxGeometry width="32.4" height="45" relative="1" as="geometry">
            <mxPoint x="5" y="7" as="offset" />
          </mxGeometry>
        </mxCell>
        <mxCell id="vWzwQ7BeG_ch1uv16o5f-13" style="edgeStyle=orthogonalEdgeStyle;rounded=0;orthogonalLoop=1;jettySize=auto;html=1;" edge="1" parent="1" source="vWzwQ7BeG_ch1uv16o5f-7" target="vWzwQ7BeG_ch1uv16o5f-14">
          <mxGeometry relative="1" as="geometry" />
        </mxCell>
        <mxCell id="vWzwQ7BeG_ch1uv16o5f-7" value="" style="image;aspect=fixed;perimeter=ellipsePerimeter;html=1;align=center;shadow=0;dashed=0;fontColor=#4277BB;labelBackgroundColor=default;fontSize=12;spacingTop=3;image=img/lib/ibm/infrastructure/mobile_backend.svg;" vertex="1" parent="1">
          <mxGeometry x="270" y="120" width="160" height="160" as="geometry" />
        </mxCell>
        <mxCell id="vWzwQ7BeG_ch1uv16o5f-8" value="&lt;h3&gt;login-server&lt;/h3&gt;" style="text;html=1;align=center;verticalAlign=middle;resizable=0;points=[];autosize=1;strokeColor=none;fillColor=none;" vertex="1" parent="1">
          <mxGeometry x="300" y="80" width="100" height="60" as="geometry" />
        </mxCell>
        <mxCell id="vWzwQ7BeG_ch1uv16o5f-10" value="" style="strokeColor=#dddddd;shadow=1;strokeWidth=1;rounded=1;absoluteArcSize=1;arcSize=2;" vertex="1" parent="1">
          <mxGeometry x="810" y="130" width="150" height="90" as="geometry" />
        </mxCell>
        <mxCell id="vWzwQ7BeG_ch1uv16o5f-11" value="Frontend&#xa;Platform Services" style="sketch=0;dashed=0;connectable=0;html=1;fillColor=#757575;strokeColor=none;shape=mxgraph.gcp2.frontend_platform_services;part=1;labelPosition=right;verticalLabelPosition=middle;align=left;verticalAlign=middle;spacingLeft=5;fontSize=12;" vertex="1" parent="vWzwQ7BeG_ch1uv16o5f-10">
          <mxGeometry y="0.5" width="32" height="32" relative="1" as="geometry">
            <mxPoint x="5" y="-16" as="offset" />
          </mxGeometry>
        </mxCell>
        <mxCell id="vWzwQ7BeG_ch1uv16o5f-12" value="&lt;h3&gt;login-client&lt;/h3&gt;" style="text;html=1;align=center;verticalAlign=middle;resizable=0;points=[];autosize=1;strokeColor=none;fillColor=none;" vertex="1" parent="1">
          <mxGeometry x="835" y="80" width="100" height="60" as="geometry" />
        </mxCell>
        <mxCell id="vWzwQ7BeG_ch1uv16o5f-15" style="edgeStyle=orthogonalEdgeStyle;rounded=0;orthogonalLoop=1;jettySize=auto;html=1;entryX=0;entryY=0.5;entryDx=0;entryDy=0;" edge="1" parent="1" source="vWzwQ7BeG_ch1uv16o5f-14" target="vWzwQ7BeG_ch1uv16o5f-10">
          <mxGeometry relative="1" as="geometry" />
        </mxCell>
        <mxCell id="vWzwQ7BeG_ch1uv16o5f-14" value="" style="outlineConnect=0;dashed=0;verticalLabelPosition=bottom;verticalAlign=top;align=center;html=1;shape=mxgraph.aws3.classic_load_balancer;fillColor=#F58534;gradientColor=none;" vertex="1" parent="1">
          <mxGeometry x="580" y="280" width="70" height="72" as="geometry" />
        </mxCell>
        <mxCell id="vWzwQ7BeG_ch1uv16o5f-16" value="&lt;h3&gt;Load-Balancer&lt;/h3&gt;" style="text;html=1;align=center;verticalAlign=middle;resizable=0;points=[];autosize=1;strokeColor=none;fillColor=none;" vertex="1" parent="1">
          <mxGeometry x="550" y="223" width="120" height="60" as="geometry" />
        </mxCell>
        <mxCell id="vWzwQ7BeG_ch1uv16o5f-17" value="&lt;h3&gt;My-SQL DB&lt;/h3&gt;" style="text;html=1;align=center;verticalAlign=middle;resizable=0;points=[];autosize=1;strokeColor=none;fillColor=none;" vertex="1" parent="1">
          <mxGeometry x="-70" y="250" width="100" height="60" as="geometry" />
        </mxCell>
        <mxCell id="vWzwQ7BeG_ch1uv16o5f-18" style="edgeStyle=orthogonalEdgeStyle;rounded=0;orthogonalLoop=1;jettySize=auto;html=1;" edge="1" parent="1" source="vWzwQ7BeG_ch1uv16o5f-7">
          <mxGeometry relative="1" as="geometry">
            <mxPoint x="350" y="580" as="targetPoint" />
          </mxGeometry>
        </mxCell>
        <mxCell id="vWzwQ7BeG_ch1uv16o5f-25" style="edgeStyle=orthogonalEdgeStyle;rounded=0;orthogonalLoop=1;jettySize=auto;html=1;entryX=0.75;entryY=0;entryDx=0;entryDy=0;" edge="1" parent="1" source="vWzwQ7BeG_ch1uv16o5f-19" target="vWzwQ7BeG_ch1uv16o5f-5">
          <mxGeometry relative="1" as="geometry" />
        </mxCell>
        <mxCell id="vWzwQ7BeG_ch1uv16o5f-19" value="" style="verticalLabelPosition=bottom;verticalAlign=top;html=1;shadow=0;dashed=0;strokeWidth=1;shape=mxgraph.android.phone2;strokeColor=#c0c0c0;" vertex="1" parent="1">
          <mxGeometry x="720" y="480" width="80" height="140" as="geometry" />
        </mxCell>
        <mxCell id="vWzwQ7BeG_ch1uv16o5f-20" value="&lt;h3&gt;MFA App&lt;/h3&gt;" style="text;html=1;align=center;verticalAlign=middle;resizable=0;points=[];autosize=1;strokeColor=none;fillColor=none;" vertex="1" parent="1">
          <mxGeometry x="720" y="524" width="80" height="60" as="geometry" />
        </mxCell>
        <mxCell id="vWzwQ7BeG_ch1uv16o5f-21" value="&lt;h3&gt;IOS&lt;/h3&gt;" style="text;html=1;align=center;verticalAlign=middle;resizable=0;points=[];autosize=1;strokeColor=none;fillColor=none;" vertex="1" parent="1">
          <mxGeometry x="735" y="433" width="50" height="60" as="geometry" />
        </mxCell>
        <mxCell id="vWzwQ7BeG_ch1uv16o5f-23" style="edgeStyle=orthogonalEdgeStyle;rounded=0;orthogonalLoop=1;jettySize=auto;html=1;entryX=-0.016;entryY=0.497;entryDx=0;entryDy=0;entryPerimeter=0;" edge="1" parent="1" source="vWzwQ7BeG_ch1uv16o5f-5" target="vWzwQ7BeG_ch1uv16o5f-20">
          <mxGeometry relative="1" as="geometry" />
        </mxCell>
        <mxCell id="vWzwQ7BeG_ch1uv16o5f-30" value="" style="aspect=fixed;sketch=0;html=1;dashed=0;whitespace=wrap;verticalLabelPosition=bottom;verticalAlign=top;fillColor=#2875E2;strokeColor=#ffffff;points=[[0.005,0.63,0],[0.1,0.2,0],[0.9,0.2,0],[0.5,0,0],[0.995,0.63,0],[0.72,0.99,0],[0.5,1,0],[0.28,0.99,0]];shape=mxgraph.kubernetes.icon2;prIcon=api" vertex="1" parent="1">
          <mxGeometry x="11" y="840" width="50" height="48" as="geometry" />
        </mxCell>
        <mxCell id="vWzwQ7BeG_ch1uv16o5f-31" value="" style="image;sketch=0;aspect=fixed;html=1;points=[];align=center;fontSize=12;image=img/lib/mscae/Docker.svg;" vertex="1" parent="1">
          <mxGeometry x="11" y="760" width="50" height="41" as="geometry" />
        </mxCell>
        <mxCell id="vWzwQ7BeG_ch1uv16o5f-32" value="&lt;h3&gt;login-server, login-client, My-SQL DB Dockerized&lt;/h3&gt;" style="text;html=1;align=center;verticalAlign=middle;resizable=0;points=[];autosize=1;strokeColor=none;fillColor=none;" vertex="1" parent="1">
          <mxGeometry x="90" y="741" width="350" height="60" as="geometry" />
        </mxCell>
        <mxCell id="vWzwQ7BeG_ch1uv16o5f-33" value="&lt;h3&gt;login-server, login-client, My-SQL DB on Pods&lt;/h3&gt;" style="text;html=1;align=center;verticalAlign=middle;resizable=0;points=[];autosize=1;strokeColor=none;fillColor=none;" vertex="1" parent="1">
          <mxGeometry x="100" y="828" width="330" height="60" as="geometry" />
        </mxCell>
        <mxCell id="vWzwQ7BeG_ch1uv16o5f-34" value="Google cloud" style="ellipse;shape=cloud;whiteSpace=wrap;html=1;" vertex="1" parent="1">
          <mxGeometry x="-24" y="930" width="120" height="80" as="geometry" />
        </mxCell>
        <mxCell id="vWzwQ7BeG_ch1uv16o5f-35" value="&lt;h3&gt;Deployed on GCP&lt;/h3&gt;" style="text;html=1;align=center;verticalAlign=middle;resizable=0;points=[];autosize=1;strokeColor=none;fillColor=none;" vertex="1" parent="1">
          <mxGeometry x="120" y="940" width="140" height="60" as="geometry" />
        </mxCell>
      </root>
    </mxGraphModel>
  </diagram>
</mxfile>
